<?xml version="1.0" encoding="UTF-8" standalone="no"?>
<svg
   xmlns:dc="http://purl.org/dc/elements/1.1/"
   xmlns:cc="http://creativecommons.org/ns#"
   xmlns:rdf="http://www.w3.org/1999/02/22-rdf-syntax-ns#"
   xmlns:svg="http://www.w3.org/2000/svg"
   xmlns="http://www.w3.org/2000/svg"
   xmlns:xlink="http://www.w3.org/1999/xlink"
   xmlns:sodipodi="http://sodipodi.sourceforge.net/DTD/sodipodi-0.dtd"
   xmlns:inkscape="http://www.inkscape.org/namespaces/inkscape"
   width="153.900871mm"
   height="27.839001mm"
   viewBox="0 0 53.900871 27.839001"
   version="1.1"
   id="svg8"
   sodipodi:docname="MusicSheet1.svg"
   inkscape:version="1.0.1 (c497b03c, 2020-09-10)">
  <defs
     id="defs2"><rect
   id="SVGID_1_"
   x="4.3200002"
   y="5.4000001"
   width="607.67999"
   height="786.59998" />
<rect
   id="SVGID_3_"
   x="4.3200002"
   y="5.4000001"
   width="607.67999"
   height="786.59998" />
<rect
   id="SVGID_5_"
   x="4.3200002"
   y="5.4000001"
   width="607.67999"
   height="786.59998" />
<rect
   id="SVGID_7_"
   x="4.3200002"
   y="5.4000001"
   width="607.67999"
   height="786.59998" />
<rect
   id="SVGID_9_"
   x="4.3200002"
   y="5.4000001"
   width="607.67999"
   height="786.59998" />
<rect
   id="SVGID_11_"
   x="4.3200002"
   y="5.4000001"
   width="607.67999"
   height="786.59998" />
<rect
   id="SVGID_13_"
   x="4.3200002"
   y="5.4000001"
   width="607.67999"
   height="786.59998" />

	<defs
   id="defs834">
		<rect
   id="rect1311"
   x="4.3200002"
   y="5.4000001"
   width="607.67999"
   height="786.59998" />

	</defs>

	<clipPath
   id="SVGID_2_">
		<use
   xlink:href="#SVGID_1_"
   overflow="visible"
   id="use836"
   x="0"
   y="0"
   width="100%"
   height="100%" />

	</clipPath>

	
	
		
	
		
	
		
	
		
	
		
	
		
	
		
	
		
	
		
	
		
	
		
	
		
	
		
	
		
	
		
	
		
	
	
	
	
	
	
	
	
		
	
	
		
	
	
	
	
		
	
	
		
	
		
	
	
	
	
		
	
	
	
		
	
	
		
	
	
		
	
	
	
		
	
	
		
	
	
		
	
	
	
		
	
	
		
	
		
	
		
	
		
	
		
	
		
	
		
	
		
	
		
	
		
	
		
	
		
	
		
	
		
	
		
	
		
	
		
	
	
	
	
		
	
	
	
		
	
	
		
	
	
		
	
	
		

	<defs
   id="defs1084">
		<rect
   id="rect1438"
   x="4.3200002"
   y="5.4000001"
   width="607.67999"
   height="786.59998" />

	</defs>

	<clipPath
   id="SVGID_4_">
		<use
   xlink:href="#SVGID_3_"
   overflow="visible"
   id="use1086"
   x="0"
   y="0"
   width="100%"
   height="100%" />

	</clipPath>

	
		
	
		
	
		
	
		
	
		
	
		
	
		
	
		
	
		
	
		
	
		
	
		
	
		
	
		
	
		
	
		
	
		
	
	
	
	
	
	
	
	
		
	
	
	
	
	
		
	
		
	
	
		
	

	<defs
   id="defs1184">
		<rect
   id="rect1490"
   x="4.3200002"
   y="5.4000001"
   width="607.67999"
   height="786.59998" />

	</defs>

	<clipPath
   id="SVGID_6_">
		<use
   xlink:href="#SVGID_5_"
   overflow="visible"
   id="use1186"
   x="0"
   y="0"
   width="100%"
   height="100%" />

	</clipPath>

	
	
		
	

	<defs
   id="defs1200">
		<rect
   id="rect1500"
   x="4.3200002"
   y="5.4000001"
   width="607.67999"
   height="786.59998" />

	</defs>

	<clipPath
   id="SVGID_8_">
		<use
   xlink:href="#SVGID_7_"
   overflow="visible"
   id="use1202"
   x="0"
   y="0"
   width="100%"
   height="100%" />

	</clipPath>

	
	
		
	

	<defs
   id="defs1216">
		<rect
   id="rect1510"
   x="4.3200002"
   y="5.4000001"
   width="607.67999"
   height="786.59998" />

	</defs>

	<clipPath
   id="SVGID_10_">
		<use
   xlink:href="#SVGID_9_"
   overflow="visible"
   id="use1218"
   x="0"
   y="0"
   width="100%"
   height="100%" />

	</clipPath>

	
	
		

	<defs
   id="defs1228">
		<rect
   id="rect1518"
   x="4.3200002"
   y="5.4000001"
   width="607.67999"
   height="786.59998" />

	</defs>

	<clipPath
   id="SVGID_12_">
		<use
   xlink:href="#SVGID_11_"
   overflow="visible"
   id="use1230"
   x="0"
   y="0"
   width="100%"
   height="100%" />

	</clipPath>

	
		
	
		
	
		
	
		
	
		
	
		
	
		
	
		
	
		
	
		
	
		
	
		
	
		
	
		
	
		
	
		
	
		
	
	

	<defs
   id="defs1276">
		<rect
   id="rect1544"
   x="4.3200002"
   y="5.4000001"
   width="607.67999"
   height="786.59998" />

	</defs>

	<clipPath
   id="SVGID_14_">
		<use
   xlink:href="#SVGID_13_"
   overflow="visible"
   id="use1278"
   x="0"
   y="0"
   width="100%"
   height="100%" />

	</clipPath>

	
	
		
	
	
		
	
	
		
</defs>
  <sodipodi:namedview
     id="base"
     pagecolor="#ffffff"
     bordercolor="#666666"
     borderopacity="1.0"
     inkscape:pageopacity="0.0"
     inkscape:pageshadow="2"
     inkscape:zoom="2.8284271"
     inkscape:cx="24.54898"
     inkscape:cy="36.327527"
     inkscape:document-units="mm"
     inkscape:current-layer="layer2"
     inkscape:document-rotation="0"
     showgrid="false"
     inkscape:window-width="1920"
     inkscape:window-height="1087"
     inkscape:window-x="1920"
     inkscape:window-y="23"
     inkscape:window-maximized="1" />
  <metadata
     id="metadata5">
    <rdf:RDF>
      <cc:Work
         rdf:about="">
        <dc:format>image/svg+xml</dc:format>
        <dc:type
           rdf:resource="http://purl.org/dc/dcmitype/StillImage" />
      </cc:Work>
    </rdf:RDF>
  </metadata>
  <g
     inkscape:label="Layer 1"
     inkscape:groupmode="layer"
     id="layer1"
     transform="translate(32.037598,-57.816547)"
     style="display:inline">
    <g
       clip-path="url(#SVGID_2_)"
       id="g841"
       transform="matrix(0.26458333,0,0,0.26458333,-36.407042,51.150348)">
		<path
   d="m 306.924,748.848 h 0.557 v 5.273 h 1.225 v 0.779 h -1.225 v 1.998 h -0.932 V 754.9 h -3.375 v -0.779 z m -0.387,1.211 -2.876,4.062 h 2.876 z"
   id="path839" />

	</g>
  </g>
  <g
     inkscape:groupmode="layer"
     id="layer2"
     inkscape:label="Layer 2"
     style="display:inline"
     transform="translate(2.0519927,-0.80091639)">
    <g
       id="g2257">
      <rect
         style="display:inline;fill:#ffffff;stroke-width:0.68548"
         id="rect2081"
         width="53.900013"
         height="27.839001"
         x="-32.037598"
         y="57.816547"
         transform="translate(29.985604,-57.01563)" />
      <line
         clip-path="url(#SVGID_2_)"
         fill="none"
         stroke="#000000"
         stroke-width="0.48"
         stroke-miterlimit="10"
         x1="32.490002"
         y1="39.57"
         x2="593.54999"
         y2="39.57"
         id="line843"
         transform="matrix(0.08853421,0,0,0.26528776,-0.70159801,-5.919951)"
         style="display:inline" />
      <line
         clip-path="url(#SVGID_2_)"
         fill="none"
         stroke="#000000"
         stroke-width="0.48"
         stroke-miterlimit="10"
         x1="32.490002"
         y1="44.91"
         x2="593.54999"
         y2="44.91"
         id="line845"
         transform="matrix(0.08853599,0,0,0.26528776,-0.701656,-5.919951)"
         style="display:inline" />
      <line
         clip-path="url(#SVGID_2_)"
         fill="none"
         stroke="#000000"
         stroke-width="0.48"
         stroke-miterlimit="10"
         x1="32.490002"
         y1="50.25"
         x2="593.54999"
         y2="50.25"
         id="line847"
         transform="matrix(0.08853599,0,0,0.26528776,-0.701656,-5.919951)"
         style="display:inline" />
      <line
         clip-path="url(#SVGID_2_)"
         fill="none"
         stroke="#000000"
         stroke-width="0.48"
         stroke-miterlimit="10"
         x1="32.490002"
         y1="55.59"
         x2="593.54999"
         y2="55.59"
         id="line849"
         transform="matrix(0.08853599,0,0,0.26528776,-0.701656,-5.919951)"
         style="display:inline" />
      <line
         clip-path="url(#SVGID_2_)"
         fill="none"
         stroke="#000000"
         stroke-width="0.48"
         stroke-miterlimit="10"
         x1="32.490002"
         y1="60.93"
         x2="593.54999"
         y2="60.93"
         id="line851"
         transform="matrix(0.08853599,0,0,0.26528776,-0.701656,-5.919951)"
         style="display:inline" />
      <line
         clip-path="url(#SVGID_2_)"
         fill="none"
         stroke="#000000"
         stroke-width="0.48"
         stroke-miterlimit="10"
         x1="32.490002"
         y1="39.57"
         x2="32.490002"
         y2="39.57"
         id="line853"
         transform="matrix(0.26458333,0,0,0.26458333,-6.421437,-5.8652831)"
         style="display:inline" />
      <line
         clip-path="url(#SVGID_2_)"
         fill="none"
         stroke="#000000"
         stroke-width="0.48"
         stroke-miterlimit="10"
         x1="32.490002"
         y1="44.91"
         x2="32.490002"
         y2="44.91"
         id="line855"
         transform="matrix(0.26458333,0,0,0.26458333,-6.421437,-5.8652831)"
         style="display:inline" />
      <line
         clip-path="url(#SVGID_2_)"
         fill="none"
         stroke="#000000"
         stroke-width="0.48"
         stroke-miterlimit="10"
         x1="32.490002"
         y1="50.25"
         x2="32.490002"
         y2="50.25"
         id="line857"
         transform="matrix(0.26458333,0,0,0.26458333,-6.421437,-5.8652831)"
         style="display:inline" />
      <line
         clip-path="url(#SVGID_2_)"
         fill="none"
         stroke="#000000"
         stroke-width="0.48"
         stroke-miterlimit="10"
         x1="32.490002"
         y1="55.59"
         x2="32.490002"
         y2="55.59"
         id="line859"
         transform="matrix(0.26458333,0,0,0.26458333,-6.421437,-5.8652831)"
         style="display:inline" />
      <line
         clip-path="url(#SVGID_2_)"
         fill="none"
         stroke="#000000"
         stroke-width="0.48"
         stroke-miterlimit="10"
         x1="32.490002"
         y1="60.93"
         x2="32.490002"
         y2="60.93"
         id="line861"
         transform="matrix(0.26458333,0,0,0.26458333,-6.421437,-5.8652831)"
         style="display:inline" />
      <line
         clip-path="url(#SVGID_2_)"
         fill="none"
         stroke="#000000"
         stroke-width="0.48"
         stroke-miterlimit="10"
         x1="32.490002"
         y1="39.57"
         x2="32.490002"
         y2="60.93"
         id="line873"
         transform="matrix(0.26458333,0,0,0.26458333,-6.421437,-5.8652831)"
         style="display:inline" />
      <g
         clip-path="url(#SVGID_2_)"
         id="g883"
         transform="matrix(0.26458333,0,0,0.26458333,-6.421437,-5.8652831)"
         style="display:inline">
		<path
   d="m 46.153,60.711 c -0.626,0.202 -1.249,0.302 -1.867,0.302 -0.633,0 -1.243,-0.101 -1.83,-0.302 -0.588,-0.202 -1.137,-0.485 -1.648,-0.85 -0.511,-0.365 -0.977,-0.805 -1.398,-1.319 -0.42,-0.515 -0.78,-1.084 -1.079,-1.71 -0.299,-0.626 -0.53,-1.298 -0.694,-2.018 -0.164,-0.72 -0.245,-1.469 -0.245,-2.248 0,-0.995 0.149,-1.891 0.449,-2.691 0.299,-0.8 0.708,-1.552 1.226,-2.258 0.518,-0.706 1.125,-1.389 1.82,-2.049 0.695,-0.66 1.439,-1.345 2.232,-2.055 -0.216,-1.099 -0.356,-2.037 -0.422,-2.816 -0.066,-0.779 -0.099,-1.436 -0.099,-1.971 0,-1.133 0.094,-2.117 0.282,-2.952 0.188,-0.834 0.416,-1.522 0.685,-2.065 0.268,-0.542 0.55,-0.946 0.846,-1.21 0.296,-0.264 0.552,-0.396 0.769,-0.396 0.223,0 0.44,0.077 0.653,0.229 0.212,0.153 0.413,0.358 0.601,0.616 0.188,0.258 0.36,0.553 0.517,0.886 0.157,0.334 0.292,0.68 0.408,1.038 0.115,0.358 0.206,0.715 0.272,1.069 0.066,0.354 0.099,0.685 0.099,0.991 0,1.196 -0.09,2.265 -0.271,3.207 -0.181,0.942 -0.426,1.789 -0.735,2.54 -0.31,0.751 -0.669,1.424 -1.08,2.019 -0.41,0.594 -0.841,1.138 -1.293,1.632 l 0.678,3.828 c 0.097,-0.014 0.196,-0.024 0.297,-0.032 0.101,-0.007 0.203,-0.01 0.308,-0.01 0.646,0 1.253,0.124 1.819,0.37 0.565,0.247 1.06,0.581 1.482,1.001 0.422,0.421 0.754,0.915 0.997,1.481 0.242,0.567 0.364,1.173 0.364,1.82 0,0.626 -0.085,1.226 -0.256,1.799 -0.171,0.573 -0.408,1.104 -0.714,1.59 -0.306,0.486 -0.673,0.923 -1.1,1.309 -0.428,0.386 -0.896,0.704 -1.403,0.954 l 0.739,4.12 c 0.014,0.083 0.026,0.181 0.037,0.292 0.01,0.111 0.019,0.222 0.026,0.333 0.007,0.111 0.012,0.215 0.016,0.313 0.003,0.097 0.005,0.177 0.005,0.24 0,0.501 -0.096,0.972 -0.288,1.414 -0.192,0.441 -0.452,0.827 -0.779,1.158 -0.328,0.33 -0.715,0.591 -1.161,0.782 -0.446,0.191 -0.92,0.287 -1.422,0.287 -0.528,0 -1.029,-0.064 -1.502,-0.193 -0.473,-0.129 -0.888,-0.318 -1.246,-0.568 -0.358,-0.25 -0.644,-0.558 -0.855,-0.923 -0.212,-0.365 -0.318,-0.787 -0.318,-1.267 0,-0.271 0.052,-0.528 0.156,-0.772 0.104,-0.243 0.247,-0.457 0.428,-0.641 0.181,-0.185 0.391,-0.329 0.631,-0.433 0.24,-0.104 0.499,-0.156 0.777,-0.156 0.278,0 0.539,0.052 0.782,0.156 0.243,0.104 0.457,0.249 0.641,0.433 0.184,0.184 0.329,0.398 0.433,0.641 0.104,0.244 0.156,0.501 0.156,0.772 0,0.229 -0.014,0.421 -0.042,0.574 -0.028,0.153 -0.066,0.282 -0.115,0.386 -0.049,0.104 -0.106,0.191 -0.172,0.261 -0.066,0.07 -0.134,0.136 -0.203,0.198 -0.104,0.09 -0.179,0.156 -0.225,0.198 -0.045,0.042 -0.067,0.111 -0.067,0.208 0,0.118 0.045,0.217 0.135,0.297 0.09,0.08 0.292,0.12 0.605,0.12 0.403,0 0.784,-0.077 1.142,-0.229 0.358,-0.153 0.669,-0.364 0.934,-0.631 0.264,-0.268 0.473,-0.579 0.625,-0.933 0.153,-0.355 0.229,-0.734 0.229,-1.137 0,-0.048 -10e-4,-0.122 -0.005,-0.219 -0.004,-0.098 -0.009,-0.2 -0.016,-0.308 -0.007,-0.108 -0.016,-0.209 -0.026,-0.303 -0.01,-0.094 -0.019,-0.168 -0.026,-0.224 z m -1.46,-8.25 c -0.348,0.098 -0.669,0.247 -0.965,0.449 -0.295,0.202 -0.549,0.443 -0.761,0.725 -0.212,0.282 -0.379,0.596 -0.5,0.944 -0.121,0.348 -0.183,0.713 -0.183,1.095 0,0.34 0.064,0.659 0.193,0.954 0.129,0.295 0.304,0.555 0.527,0.777 0.223,0.222 0.481,0.398 0.777,0.526 0.295,0.129 0.614,0.193 0.955,0.193 v 0.448 c -0.521,0 -1.012,-0.099 -1.471,-0.297 -0.459,-0.198 -0.86,-0.469 -1.205,-0.813 -0.345,-0.344 -0.615,-0.746 -0.813,-1.205 -0.198,-0.459 -0.297,-0.949 -0.297,-1.471 0,-0.528 0.085,-1.034 0.255,-1.518 0.17,-0.483 0.405,-0.921 0.704,-1.314 0.299,-0.393 0.653,-0.731 1.064,-1.017 0.41,-0.285 0.858,-0.497 1.345,-0.636 l -0.594,-3.338 c -0.39,0.396 -0.781,0.775 -1.173,1.137 -0.393,0.361 -0.772,0.727 -1.137,1.095 -0.365,0.369 -0.704,0.748 -1.017,1.137 -0.313,0.389 -0.586,0.812 -0.819,1.267 -0.233,0.455 -0.416,0.953 -0.547,1.491 -0.132,0.539 -0.198,1.142 -0.198,1.81 0,0.751 0.143,1.457 0.428,2.117 0.285,0.661 0.676,1.238 1.173,1.731 0.497,0.494 1.076,0.883 1.736,1.168 0.66,0.285 1.366,0.428 2.117,0.428 0.577,0 1.158,-0.111 1.742,-0.333 z m -0.949,-9.523 c 0.445,-0.417 0.862,-0.839 1.251,-1.267 0.389,-0.428 0.73,-0.874 1.022,-1.34 0.292,-0.465 0.521,-0.956 0.688,-1.47 0.167,-0.514 0.25,-1.064 0.25,-1.648 0,-0.264 -0.035,-0.506 -0.104,-0.725 -0.07,-0.219 -0.166,-0.407 -0.287,-0.563 -0.122,-0.157 -0.262,-0.276 -0.422,-0.36 -0.16,-0.083 -0.333,-0.125 -0.521,-0.125 -0.111,0 -0.243,0.021 -0.396,0.062 -0.153,0.042 -0.308,0.118 -0.464,0.229 -0.156,0.111 -0.311,0.268 -0.464,0.469 -0.153,0.202 -0.291,0.462 -0.412,0.782 -0.121,0.32 -0.219,0.708 -0.292,1.163 -0.073,0.456 -0.109,0.996 -0.109,1.622 0,0.438 0.019,0.918 0.057,1.439 0.038,0.521 0.105,1.1 0.203,1.732 z m 1.648,9.398 1.293,7.342 c 0.341,-0.202 0.652,-0.445 0.934,-0.73 0.281,-0.285 0.521,-0.6 0.72,-0.944 0.198,-0.344 0.351,-0.714 0.458,-1.111 0.107,-0.397 0.162,-0.803 0.162,-1.22 0,-0.459 -0.087,-0.892 -0.261,-1.298 -0.174,-0.407 -0.412,-0.762 -0.715,-1.064 -0.302,-0.303 -0.657,-0.541 -1.063,-0.714 -0.406,-0.173 -0.84,-0.261 -1.299,-0.261 z"
   id="path881" />

	</g>
      <line
         clip-path="url(#SVGID_2_)"
         fill="none"
         stroke="#000000"
         stroke-width="0.48"
         stroke-miterlimit="10"
         x1="219.99001"
         y1="39.57"
         x2="219.99001"
         y2="60.93"
         id="line933"
         transform="matrix(0.26458333,0,0,0.26458333,-6.421437,-5.8652831)"
         style="display:inline" />
      <path
         clip-path="url(#SVGID_2_)"
         d="m 30.45,39.57 c -3.96,1.521 -5.94,4.311 -5.94,8.369 0,4.058 0.66,7.516 1.98,10.374 1.32,3.903 1.98,7.362 1.98,10.375 0,3.013 -1.32,5.987 -3.96,8.922 2.64,2.936 3.96,5.91 3.96,8.923 0,3.013 -0.66,6.471 -1.98,10.375 -1.32,2.858 -1.98,6.316 -1.98,10.374 0,4.058 1.98,6.847 5.94,8.369 -2.64,-1.521 -3.96,-4.311 -3.96,-8.369 0.66,-4.058 1.65,-7.516 2.97,-10.374 1.32,-3.904 1.98,-7.362 1.98,-10.375 -0.66,-3.013 -2.805,-5.987 -6.435,-8.923 4.29,-2.936 6.435,-5.91 6.435,-8.922 0,-3.012 -0.66,-6.471 -1.98,-10.375 -1.32,-3.904 -2.31,-7.361 -2.97,-10.374 0,-4.058 1.32,-6.847 3.96,-8.369 z"
         id="path1077"
         transform="matrix(0.26458333,0,0,0.26458333,-6.421437,-5.8652831)"
         style="display:inline" />
      <path
         clip-path="url(#SVGID_2_)"
         fill="none"
         stroke="#000000"
         stroke-width="0.48"
         stroke-linejoin="round"
         stroke-miterlimit="10"
         d="m 30.45,39.57 c -3.96,1.521 -5.94,4.311 -5.94,8.369 0,4.058 0.66,7.516 1.98,10.374 1.32,3.903 1.98,7.362 1.98,10.375 0,3.013 -1.32,5.987 -3.96,8.922 2.64,2.936 3.96,5.91 3.96,8.923 0,3.013 -0.66,6.471 -1.98,10.375 -1.32,2.858 -1.98,6.316 -1.98,10.374 0,4.058 1.98,6.847 5.94,8.369 -2.64,-1.521 -3.96,-4.311 -3.96,-8.369 0.66,-4.058 1.65,-7.516 2.97,-10.374 1.32,-3.904 1.98,-7.362 1.98,-10.375 -0.66,-3.013 -2.805,-5.987 -6.435,-8.923 4.29,-2.936 6.435,-5.91 6.435,-8.922 0,-3.012 -0.66,-6.471 -1.98,-10.375 -1.32,-3.904 -2.31,-7.361 -2.97,-10.374 0,-4.058 1.32,-6.847 3.96,-8.369 z"
         id="path1079"
         transform="matrix(0.26458333,0,0,0.26458333,-6.421437,-5.8652831)"
         style="display:inline" />
      <line
         clip-path="url(#SVGID_4_)"
         fill="none"
         stroke="#000000"
         stroke-width="0.48"
         stroke-miterlimit="10"
         x1="32.490002"
         y1="39.57"
         x2="32.490002"
         y2="115.65"
         id="line1089"
         transform="matrix(0.26458333,0,0,0.26458333,-6.421437,-5.8652831)"
         style="display:inline" />
      <line
         clip-path="url(#SVGID_4_)"
         fill="none"
         stroke="#000000"
         stroke-width="0.48"
         stroke-miterlimit="10"
         x1="32.490002"
         y1="94.290001"
         x2="593.54999"
         y2="94.290001"
         id="line1091"
         transform="matrix(0.08853599,0,0,0.26528776,-0.701656,-5.919951)"
         style="display:inline" />
      <line
         clip-path="url(#SVGID_4_)"
         fill="none"
         stroke="#000000"
         stroke-width="0.48"
         stroke-miterlimit="10"
         x1="32.490002"
         y1="99.629997"
         x2="593.54999"
         y2="99.629997"
         id="line1093"
         transform="matrix(0.08853599,0,0,0.26528776,-0.701656,-5.919951)"
         style="display:inline" />
      <line
         clip-path="url(#SVGID_4_)"
         fill="none"
         stroke="#000000"
         stroke-width="0.48"
         stroke-miterlimit="10"
         x1="32.490002"
         y1="104.97"
         x2="593.54999"
         y2="104.97"
         id="line1095"
         transform="matrix(0.08853599,0,0,0.26528776,-0.701656,-5.919951)"
         style="display:inline" />
      <line
         clip-path="url(#SVGID_4_)"
         fill="none"
         stroke="#000000"
         stroke-width="0.48"
         stroke-miterlimit="10"
         x1="32.490002"
         y1="110.31"
         x2="593.54999"
         y2="110.31"
         id="line1097"
         transform="matrix(0.08853599,0,0,0.26528776,-0.701656,-5.919951)"
         style="display:inline" />
      <line
         clip-path="url(#SVGID_4_)"
         fill="none"
         stroke="#000000"
         stroke-width="0.48"
         stroke-miterlimit="10"
         x1="32.490002"
         y1="115.65"
         x2="593.54999"
         y2="115.65"
         id="line1099"
         transform="matrix(0.08853599,0,0,0.26528776,-0.701656,-5.919951)"
         style="display:inline" />
      <line
         clip-path="url(#SVGID_4_)"
         fill="none"
         stroke="#000000"
         stroke-width="0.48"
         stroke-miterlimit="10"
         x1="32.490002"
         y1="94.290001"
         x2="32.490002"
         y2="94.290001"
         id="line1101"
         transform="matrix(0.26458333,0,0,0.26458333,-6.421437,-5.8652831)"
         style="display:inline" />
      <line
         clip-path="url(#SVGID_4_)"
         fill="none"
         stroke="#000000"
         stroke-width="0.48"
         stroke-miterlimit="10"
         x1="32.490002"
         y1="99.629997"
         x2="32.490002"
         y2="99.629997"
         id="line1103"
         transform="matrix(0.26458333,0,0,0.26458333,-6.421437,-5.8652831)"
         style="display:inline" />
      <line
         clip-path="url(#SVGID_4_)"
         fill="none"
         stroke="#000000"
         stroke-width="0.48"
         stroke-miterlimit="10"
         x1="32.490002"
         y1="104.97"
         x2="32.490002"
         y2="104.97"
         id="line1105"
         transform="matrix(0.26458333,0,0,0.26458333,-6.421437,-5.8652831)"
         style="display:inline" />
      <line
         clip-path="url(#SVGID_4_)"
         fill="none"
         stroke="#000000"
         stroke-width="0.48"
         stroke-miterlimit="10"
         x1="32.490002"
         y1="110.31"
         x2="32.490002"
         y2="110.31"
         id="line1107"
         transform="matrix(0.26458333,0,0,0.26458333,-6.421437,-5.8652831)"
         style="display:inline" />
      <line
         clip-path="url(#SVGID_4_)"
         fill="none"
         stroke="#000000"
         stroke-width="0.48"
         stroke-miterlimit="10"
         x1="32.490002"
         y1="115.65"
         x2="32.490002"
         y2="115.65"
         id="line1109"
         transform="matrix(0.26458333,0,0,0.26458333,-6.421437,-5.8652831)"
         style="display:inline" />
      <line
         clip-path="url(#SVGID_4_)"
         fill="none"
         stroke="#000000"
         stroke-width="0.48"
         stroke-miterlimit="10"
         x1="32.490002"
         y1="39.57"
         x2="32.490002"
         y2="115.65"
         id="line1121"
         transform="matrix(0.26458333,0,0,0.26458333,-6.421437,-5.8652831)"
         style="display:inline" />
      <g
         clip-path="url(#SVGID_4_)"
         id="g1125"
         transform="matrix(0.26458333,0,0,0.26458333,-6.421437,-5.8652831)"
         style="display:inline">
		<path
   d="m 37.319,111.447 c 1.272,-0.667 2.428,-1.443 3.468,-2.326 1.04,-0.883 1.926,-1.841 2.66,-2.874 0.733,-1.033 1.302,-2.123 1.705,-3.27 0.403,-1.147 0.605,-2.319 0.605,-3.515 0,-0.619 -0.096,-1.166 -0.287,-1.643 -0.191,-0.476 -0.452,-0.874 -0.782,-1.194 -0.331,-0.319 -0.718,-0.561 -1.163,-0.725 -0.445,-0.164 -0.918,-0.245 -1.418,-0.245 -0.542,0 -1.003,0.075 -1.382,0.224 -0.379,0.15 -0.687,0.325 -0.923,0.527 -0.236,0.202 -0.407,0.407 -0.511,0.615 -0.104,0.208 -0.157,0.372 -0.157,0.49 0,0.139 0.038,0.259 0.115,0.36 0.077,0.101 0.195,0.151 0.355,0.151 0.111,0 0.253,-0.035 0.427,-0.104 0.174,-0.069 0.348,-0.104 0.521,-0.104 0.244,0 0.47,0.047 0.678,0.141 0.208,0.094 0.387,0.221 0.537,0.38 0.149,0.16 0.266,0.348 0.349,0.563 0.083,0.215 0.125,0.445 0.125,0.688 0,0.243 -0.047,0.475 -0.141,0.693 -0.094,0.219 -0.221,0.408 -0.38,0.568 -0.16,0.16 -0.348,0.287 -0.563,0.381 -0.215,0.094 -0.448,0.141 -0.699,0.141 -0.369,0 -0.695,-0.062 -0.98,-0.188 -0.285,-0.125 -0.526,-0.296 -0.725,-0.511 -0.199,-0.215 -0.35,-0.469 -0.454,-0.761 -0.104,-0.292 -0.157,-0.602 -0.157,-0.928 0,-0.584 0.115,-1.132 0.344,-1.643 0.229,-0.511 0.553,-0.956 0.97,-1.335 0.417,-0.378 0.914,-0.679 1.491,-0.902 0.577,-0.223 1.217,-0.334 1.919,-0.334 0.758,0 1.472,0.141 2.144,0.422 0.671,0.282 1.257,0.667 1.757,1.158 0.5,0.491 0.895,1.064 1.184,1.721 0.289,0.657 0.433,1.357 0.433,2.102 0,0.834 -0.12,1.649 -0.36,2.446 -0.24,0.796 -0.586,1.562 -1.038,2.3 -0.452,0.737 -1.003,1.438 -1.653,2.102 -0.65,0.664 -1.382,1.283 -2.195,1.856 -0.813,0.573 -1.706,1.099 -2.675,1.575 -0.97,0.476 -1.998,0.888 -3.082,1.236 z M 51.712,96.991 c 0,0.153 -0.03,0.297 -0.089,0.433 -0.059,0.136 -0.139,0.252 -0.24,0.35 -0.101,0.098 -0.219,0.176 -0.355,0.235 -0.135,0.059 -0.28,0.088 -0.433,0.088 -0.313,0 -0.575,-0.106 -0.788,-0.318 -0.212,-0.212 -0.318,-0.475 -0.318,-0.788 0,-0.153 0.029,-0.297 0.088,-0.433 0.059,-0.136 0.137,-0.254 0.235,-0.355 0.097,-0.101 0.214,-0.181 0.35,-0.24 0.135,-0.059 0.28,-0.089 0.433,-0.089 0.153,0 0.297,0.03 0.433,0.089 0.136,0.059 0.254,0.139 0.355,0.24 0.101,0.101 0.181,0.219 0.24,0.355 0.06,0.136 0.089,0.28 0.089,0.433 z m 0,5.351 c 0,0.153 -0.03,0.297 -0.089,0.433 -0.059,0.136 -0.139,0.252 -0.24,0.35 -0.101,0.097 -0.219,0.175 -0.355,0.234 -0.135,0.059 -0.28,0.089 -0.433,0.089 -0.313,0 -0.575,-0.106 -0.788,-0.318 -0.212,-0.212 -0.318,-0.475 -0.318,-0.787 0,-0.153 0.029,-0.297 0.088,-0.433 0.059,-0.135 0.137,-0.254 0.235,-0.354 0.097,-0.101 0.214,-0.181 0.35,-0.24 0.135,-0.059 0.28,-0.089 0.433,-0.089 0.153,0 0.297,0.03 0.433,0.089 0.136,0.059 0.254,0.139 0.355,0.24 0.101,0.101 0.181,0.219 0.24,0.354 0.06,0.134 0.089,0.278 0.089,0.432 z"
   id="path1123" />

	</g>
      <line
         clip-path="url(#SVGID_4_)"
         fill="none"
         stroke="#000000"
         stroke-width="0.48"
         stroke-miterlimit="10"
         x1="219.99001"
         y1="39.57"
         x2="219.99001"
         y2="115.65"
         id="line1171"
         transform="matrix(0.26458333,0,0,0.26458333,-6.421437,-5.8652831)"
         style="display:inline" />
    </g>
  </g>
</svg>
