<?xml version="1.0" encoding="UTF-8" standalone="no"?>
<svg
   xmlns:dc="http://purl.org/dc/elements/1.1/"
   xmlns:cc="http://creativecommons.org/ns#"
   xmlns:rdf="http://www.w3.org/1999/02/22-rdf-syntax-ns#"
   xmlns:svg="http://www.w3.org/2000/svg"
   xmlns="http://www.w3.org/2000/svg"
   xmlns:xlink="http://www.w3.org/1999/xlink"
   xmlns:sodipodi="http://sodipodi.sourceforge.net/DTD/sodipodi-0.dtd"
   xmlns:inkscape="http://www.inkscape.org/namespaces/inkscape"
   version="1.1"
   id="Layer_1"
   x="0px"
   y="0px"
   width="7.1479945"
   height="21.309996"
   viewBox="0 0 7.1479945 21.309996"
   enable-background="new 0 0 612 792"
   xml:space="preserve"
   sodipodi:docname="note.svg"
   inkscape:version="1.0.1 (c497b03c, 2020-09-10)"><metadata
   id="metadata1302"><rdf:RDF><cc:Work
       rdf:about=""><dc:format>image/svg+xml</dc:format><dc:type
         rdf:resource="http://purl.org/dc/dcmitype/StillImage" /><dc:title></dc:title></cc:Work></rdf:RDF></metadata><defs
   id="defs1300">
	<defs
   id="defs1276">
		<rect
   id="SVGID_13_"
   x="4.3200002"
   y="5.4000001"
   width="607.67999"
   height="786.59998" />
	</defs>
	<clipPath
   id="SVGID_14_">
		<use
   xlink:href="#SVGID_13_"
   overflow="visible"
   id="use1278"
   x="0"
   y="0"
   width="100%"
   height="100%" />
	</clipPath>
	
	
		
	
	
		
	
	
		

	<defs
   id="defs1228">
		<rect
   id="SVGID_11_"
   x="4.3200002"
   y="5.4000001"
   width="607.67999"
   height="786.59998" />
	</defs>
	<clipPath
   id="SVGID_12_">
		<use
   xlink:href="#SVGID_11_"
   overflow="visible"
   id="use1230"
   x="0"
   y="0"
   width="100%"
   height="100%" />
	</clipPath>
	
		
	
		
	
		
	
		
	
		
	
		
	
		
	
		
	
		
	
		
	
		
	
		
	
		
	
		
	
		
	
		
	
		
	
	

	<defs
   id="defs1216">
		<rect
   id="SVGID_9_"
   x="4.3200002"
   y="5.4000001"
   width="607.67999"
   height="786.59998" />
	</defs>
	<clipPath
   id="SVGID_10_">
		<use
   xlink:href="#SVGID_9_"
   overflow="visible"
   id="use1218"
   x="0"
   y="0"
   width="100%"
   height="100%" />
	</clipPath>
	
	
		

	<defs
   id="defs1200">
		<rect
   id="SVGID_7_"
   x="4.3200002"
   y="5.4000001"
   width="607.67999"
   height="786.59998" />
	</defs>
	<clipPath
   id="SVGID_8_">
		<use
   xlink:href="#SVGID_7_"
   overflow="visible"
   id="use1202"
   x="0"
   y="0"
   width="100%"
   height="100%" />
	</clipPath>
	
	
		
	

	<defs
   id="defs1184">
		<rect
   id="SVGID_5_"
   x="4.3200002"
   y="5.4000001"
   width="607.67999"
   height="786.59998" />
	</defs>
	<clipPath
   id="SVGID_6_">
		<use
   xlink:href="#SVGID_5_"
   overflow="visible"
   id="use1186"
   x="0"
   y="0"
   width="100%"
   height="100%" />
	</clipPath>
	
	
		
	

	<defs
   id="defs1084">
		<rect
   id="SVGID_3_"
   x="4.3200002"
   y="5.4000001"
   width="607.67999"
   height="786.59998" />
	</defs>
	<clipPath
   id="SVGID_4_">
		<use
   xlink:href="#SVGID_3_"
   overflow="visible"
   id="use1086"
   x="0"
   y="0"
   width="100%"
   height="100%" />
	</clipPath>
	
		
	
		
	
		
	
		
	
		
	
		
	
		
	
		
	
		
	
		
	
		
	
		
	
		
	
		
	
		
	
		
	
		
	
	
	
	
	
	
	
	
		
	
	
	
	
	
		
	
		
	
	
		
	

	<defs
   id="defs834">
		<rect
   id="SVGID_1_"
   x="4.3200002"
   y="5.4000001"
   width="607.67999"
   height="786.59998" />
	</defs>
	<clipPath
   id="SVGID_2_">
		<use
   xlink:href="#SVGID_1_"
   overflow="visible"
   id="use836"
   x="0"
   y="0"
   width="100%"
   height="100%" />
	</clipPath>
	
	
		
	
		
	
		
	
		
	
		
	
		
	
		
	
		
	
		
	
		
	
		
	
		
	
		
	
		
	
		
	
		
	
	
	
	
	
	
	
	
		
	
	
		
	
	
	
	
		
	
	
		
	
		
	
	
	
	
		
	
	
	
		
	
	
		
	
	
		
	
	
	
		
	
	
		
	
	
		
	
	
	
		
	
	
		
	
		
	
		
	
		
	
		
	
		
	
		
	
		
	
		
	
		
	
		
	
		
	
		
	
		
	
		
	
		
	
		
	
	
	
	
		
	
	
	
		
	
	
		
	
	
		
	
	
		

		
	
		
	
		
	
		
	
		
	
		
	
		
	
		
	
		
	
		
	
		
	
		
	
		
	
		
	
		
	
		
	
		
	
		
		
	
		
	
		
	
		
	
		
	
		
	
		
	
		
	
		
	
		
	
		
	
		
	
		
	
		
	
		
	
		
	
		
	
		
	
		
	
		
	
		
	
		
	
		
	
		
	
		
	
		
	
		
		
	
		
	
		
	
		
	
		
	
		
	</defs><sodipodi:namedview
   pagecolor="#ffffff"
   bordercolor="#666666"
   borderopacity="1"
   objecttolerance="10"
   gridtolerance="10"
   guidetolerance="10"
   inkscape:pageopacity="0"
   inkscape:pageshadow="2"
   inkscape:window-width="1920"
   inkscape:window-height="1035"
   id="namedview1298"
   showgrid="false"
   inkscape:zoom="1.8560606"
   inkscape:cx="9.8521569"
   inkscape:cy="-59.563145"
   inkscape:window-x="0"
   inkscape:window-y="23"
   inkscape:window-maximized="0"
   inkscape:current-layer="Layer_1"
   inkscape:document-rotation="0" />
<path
   d="m 84.22366,485.10662 h 0.557 v 5.273 h 1.225 v 0.779 h -1.225 v 1.998 h -0.932 v -1.998 h -3.375 v -0.779 z m -0.387,1.211 -2.876,4.062 h 2.876 z"
   id="path839" /><path
   d="m 6.937,17.793995 c 0,0.473 -0.134,0.921 -0.401,1.346 -0.268,0.424 -0.621,0.796 -1.059,1.116 -0.438,0.32 -0.932,0.575 -1.481,0.767 -0.549,0.192 -1.105,0.287 -1.669,0.287 -0.313,0 -0.61,-0.041 -0.892,-0.12 -0.282,-0.08 -0.528,-0.198 -0.741,-0.354 -0.212,-0.157 -0.38,-0.35 -0.506,-0.579 -0.125,-0.229 -0.188,-0.497 -0.188,-0.803 0,-0.445 0.134,-0.879 0.401,-1.304 0.268,-0.424 0.617,-0.799 1.048,-1.126 0.431,-0.327 0.923,-0.589 1.476,-0.788 0.553,-0.198 1.111,-0.297 1.674,-0.297 0.313,0 0.61,0.04 0.892,0.12 0.282,0.08 0.53,0.198 0.746,0.354 0.216,0.156 0.386,0.351 0.511,0.584 0.125,0.233 0.189,0.498 0.189,0.797 z"
   id="path1061" /><line
   clip-path="url(#SVGID_2_)"
   fill="none"
   stroke="#000000"
   stroke-width="0.48"
   stroke-miterlimit="10"
   x1="206.00999"
   y1="161.13"
   x2="206.00999"
   y2="179.13"
   id="line1065"
   transform="translate(-199.102,-161.13)" />






</svg>
