<?xml version="1.0" encoding="UTF-8" standalone="no"?>
<svg
   xmlns:dc="http://purl.org/dc/elements/1.1/"
   xmlns:cc="http://creativecommons.org/ns#"
   xmlns:rdf="http://www.w3.org/1999/02/22-rdf-syntax-ns#"
   xmlns:svg="http://www.w3.org/2000/svg"
   xmlns="http://www.w3.org/2000/svg"
   xmlns:xlink="http://www.w3.org/1999/xlink"
   xmlns:sodipodi="http://sodipodi.sourceforge.net/DTD/sodipodi-0.dtd"
   xmlns:inkscape="http://www.inkscape.org/namespaces/inkscape"
   version="1.1"
   id="Layer_1"
   x="0px"
   y="0px"
   width="29.999994"
   height="89.437653"
   viewBox="0 0 29.999994 89.437654"
   enable-background="new 0 0 612 792"
   xml:space="preserve"
   sodipodi:docname="note1.svg"
   inkscape:version="1.0.1 (c497b03c, 2020-09-10)"><metadata
   id="metadata1302"><rdf:RDF><cc:Work
       rdf:about=""><dc:format>image/svg+xml</dc:format><dc:type
         rdf:resource="http://purl.org/dc/dcmitype/StillImage" /><dc:title></dc:title></cc:Work></rdf:RDF></metadata><defs
   id="defs1300">
	<defs
   id="defs1276">
		<rect
   id="SVGID_13_"
   x="4.3200002"
   y="5.4000001"
   width="607.67999"
   height="786.59998" />
	</defs>
	<clipPath
   id="SVGID_14_">
		<use
   xlink:href="#SVGID_13_"
   overflow="visible"
   id="use1278"
   x="0"
   y="0"
   width="100%"
   height="100%" />
	</clipPath>
	
	
		
	
	
		
	
	
		

	<defs
   id="defs1228">
		<rect
   id="SVGID_11_"
   x="4.3200002"
   y="5.4000001"
   width="607.67999"
   height="786.59998" />
	</defs>
	<clipPath
   id="SVGID_12_">
		<use
   xlink:href="#SVGID_11_"
   overflow="visible"
   id="use1230"
   x="0"
   y="0"
   width="100%"
   height="100%" />
	</clipPath>
	
		
	
		
	
		
	
		
	
		
	
		
	
		
	
		
	
		
	
		
	
		
	
		
	
		
	
		
	
		
	
		
	
		
	
	

	<defs
   id="defs1216">
		<rect
   id="SVGID_9_"
   x="4.3200002"
   y="5.4000001"
   width="607.67999"
   height="786.59998" />
	</defs>
	<clipPath
   id="SVGID_10_">
		<use
   xlink:href="#SVGID_9_"
   overflow="visible"
   id="use1218"
   x="0"
   y="0"
   width="100%"
   height="100%" />
	</clipPath>
	
	
		

	<defs
   id="defs1200">
		<rect
   id="SVGID_7_"
   x="4.3200002"
   y="5.4000001"
   width="607.67999"
   height="786.59998" />
	</defs>
	<clipPath
   id="SVGID_8_">
		<use
   xlink:href="#SVGID_7_"
   overflow="visible"
   id="use1202"
   x="0"
   y="0"
   width="100%"
   height="100%" />
	</clipPath>
	
	
		
	

	<defs
   id="defs1184">
		<rect
   id="SVGID_5_"
   x="4.3200002"
   y="5.4000001"
   width="607.67999"
   height="786.59998" />
	</defs>
	<clipPath
   id="SVGID_6_">
		<use
   xlink:href="#SVGID_5_"
   overflow="visible"
   id="use1186"
   x="0"
   y="0"
   width="100%"
   height="100%" />
	</clipPath>
	
	
		
	

	<defs
   id="defs1084">
		<rect
   id="SVGID_3_"
   x="4.3200002"
   y="5.4000001"
   width="607.67999"
   height="786.59998" />
	</defs>
	<clipPath
   id="SVGID_4_">
		<use
   xlink:href="#SVGID_3_"
   overflow="visible"
   id="use1086"
   x="0"
   y="0"
   width="100%"
   height="100%" />
	</clipPath>
	
		
	
		
	
		
	
		
	
		
	
		
	
		
	
		
	
		
	
		
	
		
	
		
	
		
	
		
	
		
	
		
	
		
	
	
	
	
	
	
	
	
		
	
	
	
	
	
		
	
		
	
	
		
	

	<defs
   id="defs834">
		<rect
   id="SVGID_1_"
   x="4.3200002"
   y="5.4000001"
   width="607.67999"
   height="786.59998" />
	</defs>
	<clipPath
   id="SVGID_2_">
		<use
   xlink:href="#SVGID_1_"
   overflow="visible"
   id="use836"
   x="0"
   y="0"
   width="100%"
   height="100%" />
	</clipPath>
	
	
		
	
		
	
		
	
		
	
		
	
		
	
		
	
		
	
		
	
		
	
		
	
		
	
		
	
		
	
		
	
		
	
	
	
	
	
	
	
	
		
	
	
		
	
	
	
	
		
	
	
		
	
		
	
	
	
	
		
	
	
	
		
	
	
		
	
	
		
	
	
	
		
	
	
		
	
	
		
	
	
	
		
	
	
		
	
		
	
		
	
		
	
		
	
		
	
		
	
		
	
		
	
		
	
		
	
		
	
		
	
		
	
		
	
		
	
		
	
	
	
	
		
	
	
	
		
	
	
		
	
	
		
	
	
		

		
	
		
	
		
	
		
	
		
	
		
	
		
	
		
	
		
	
		
	
		
	
		
	
		
	
		
	
		
	
		
	
		
	
		
		
	
		
	
		
	
		
	
		
	
		
	
		
	
		
	
		
	
		
	
		
	
		
	
		
	
		
	
		
	
		
	
		
	
		
	
		
	
		
	
		
	
		
	
		
	
		
	
		
	
		
	
		
		
	
		
	
		
	
		
	
		
	
		
	</defs><sodipodi:namedview
   pagecolor="#ffffff"
   bordercolor="#666666"
   borderopacity="1"
   objecttolerance="10"
   gridtolerance="10"
   guidetolerance="10"
   inkscape:pageopacity="0"
   inkscape:pageshadow="2"
   inkscape:window-width="1920"
   inkscape:window-height="1035"
   id="namedview1298"
   showgrid="false"
   inkscape:zoom="1.8560606"
   inkscape:cx="9.8521569"
   inkscape:cy="26.640937"
   inkscape:window-x="-17"
   inkscape:window-y="302"
   inkscape:window-maximized="0"
   inkscape:current-layer="Layer_1"
   inkscape:document-rotation="0" />
<path
   d="m 84.22366,485.10662 h 0.557 v 5.273 h 1.225 v 0.779 h -1.225 v 1.998 h -0.932 v -1.998 h -3.375 v -0.779 z m -0.387,1.211 -2.876,4.062 h 2.876 z"
   id="path839" /><path
   d="m 29.114464,74.681061 c 0,1.985173 -0.562395,3.86542 -1.68299,5.649138 -1.124791,1.779521 -2.606325,3.340797 -4.444604,4.683831 -1.838277,1.343035 -3.911586,2.413265 -6.215731,3.219086 -2.304142,0.80582 -4.637664,1.204534 -7.0047618,1.204534 -1.3136555,0 -2.5601591,-0.172076 -3.743708,-0.503637 C 4.8391202,88.598254 3.8066627,88.103009 2.9127055,87.44828 2.0229453,86.789354 1.3178524,85.979336 0.78903262,85.018227 0.26440987,84.057119 0,82.932327 0,81.648051 0,79.780395 0.56239559,77.958904 1.6829897,76.175186 2.807781,74.395665 4.2725277,72.821798 6.0814269,71.449384 7.8903262,70.076971 9.9552413,68.977362 12.276172,68.142163 14.597103,67.31116 16.939019,66.89566 19.30192,66.89566 c 1.313655,0 2.560159,0.167878 3.743708,0.503637 1.183548,0.335758 2.2244,0.831003 3.130949,1.485732 0.906548,0.654729 1.620035,1.47314 2.144657,2.451038 0.524624,0.977897 0.79323,2.090096 0.79323,3.344994 z"
   id="path1061"
   style="stroke-width:4.19699" /><line
   clip-path="url(#SVGID_2_)"
   fill="none"
   stroke="#000000"
   stroke-width="0.48"
   stroke-miterlimit="10"
   x1="206.00999"
   y1="161.13"
   x2="206.00999"
   y2="179.13"
   id="line1065"
   transform="matrix(4.196982,0,0,4.196982,-835.62752,-676.25973)" />






</svg>
